<?xml version="1.0" standalone="no"?>
<!DOCTYPE svg PUBLIC "-//W3C//DTD SVG 20010904//EN"
 "http://www.w3.org/TR/2001/REC-SVG-20010904/DTD/svg10.dtd">
<svg version="1.0" xmlns="http://www.w3.org/2000/svg"
 width="713.000000pt" height="713.000000pt" viewBox="0 0 713.000000 713.000000"
 preserveAspectRatio="xMidYMid meet">
<metadata>
Created by potrace 1.11, written by Peter Selinger 2001-2013
</metadata>
<g transform="translate(0.000000,713.000000) scale(0.100000,-0.100000)"
fill="#000000" stroke="none">
<path d="M3482 6881 c-92 -32 -150 -108 -159 -208 -3 -29 1 -69 7 -90 17 -53
70 -115 117 -138 45 -22 46 1 -2 -195 -14 -58 -28 -113 -30 -123 -13 -56 38
-52 -612 -52 -650 0 -643 1 -729 -57 -80 -53 -125 -115 -153 -209 -17 -52 -17
-1858 -2 -1917 28 -102 102 -189 201 -236 l65 -31 520 -2 c286 -1 523 -2 528
-3 4 0 6 -36 5 -80 l-2 -80 -275 -1 c-152 0 -286 -2 -299 -5 -58 -11 -127 -68
-158 -132 -14 -28 -18 -64 -20 -151 -1 -94 -4 -115 -18 -123 -18 -10 -17 -15
-20 117 l-1 80 -30 -3 c-64 -7 -153 -63 -196 -123 l-20 -29 51 -72 c40 -54 49
-73 39 -79 -8 -4 -63 -39 -124 -78 -60 -38 -113 -67 -117 -65 -12 8 -248 404
-248 417 0 7 9 26 19 44 56 91 72 229 40 340 -25 87 -30 92 -78 64 l-40 -22
-40 27 -40 26 25 26 c60 64 91 177 71 262 -22 99 -97 189 -201 239 -64 32
-145 52 -179 45 -80 -15 -117 -45 -117 -95 0 -30 47 -124 104 -208 55 -81 79
-140 80 -195 l1 -50 -60 -24 c-33 -13 -82 -39 -108 -58 -32 -23 -55 -33 -67
-29 -33 10 -82 77 -122 165 -109 241 -132 264 -217 221 -72 -37 -121 -125
-127 -230 -9 -151 68 -285 199 -345 27 -12 58 -17 110 -15 l72 2 0 -49 c0 -47
-1 -49 -42 -72 -49 -27 -48 -29 13 -101 79 -92 196 -145 329 -150 44 -2 80 -4
81 -4 0 -1 80 -136 178 -299 103 -173 189 -306 204 -317 71 -49 134 -45 232
16 41 25 84 51 95 58 19 10 59 35 200 126 32 21 62 35 65 30 3 -5 4 -137 4
-293 -2 -306 3 -339 53 -405 14 -17 47 -43 74 -56 44 -22 63 -25 181 -26 72
-1 134 -4 138 -6 3 -2 6 -23 5 -47 l-1 -43 -144 -5 -144 -5 3 -49 c1 -27 4
-56 6 -65 33 -165 93 -299 184 -414 33 -41 68 -81 79 -88 16 -12 132 -14 640
-13 l620 1 32 34 c136 145 227 344 244 533 l6 66 -135 0 -136 0 2 50 3 50 130
0 c146 0 186 12 242 68 67 66 68 75 71 407 1 165 2 304 2 308 1 10 57 -21 161
-88 231 -148 281 -176 323 -177 42 0 98 19 127 44 15 12 130 194 130 205 0 2
12 23 28 46 15 23 32 51 39 62 6 11 48 82 94 157 l82 138 66 0 c116 0 228 43
308 119 50 47 88 101 77 110 -5 4 -25 19 -44 33 -31 22 -35 30 -34 68 l1 43
72 -2 c114 -4 204 48 266 154 97 164 40 401 -108 447 -66 20 -87 -6 -190 -233
-44 -95 -102 -169 -133 -169 -9 0 -34 15 -57 34 -23 18 -70 44 -104 57 -66 25
-67 27 -63 94 2 36 40 114 104 213 72 111 90 156 76 196 -21 65 -122 87 -233
50 -61 -20 -141 -69 -179 -110 -15 -16 -39 -54 -54 -84 -23 -46 -28 -68 -28
-135 -1 -86 10 -116 67 -188 16 -21 28 -39 26 -41 -2 -1 -21 -12 -41 -25 l-36
-22 -34 21 c-18 11 -38 20 -45 20 -23 0 -54 -129 -52 -214 2 -92 12 -131 51
-203 l28 -51 -116 -194 c-63 -106 -121 -201 -129 -211 -12 -17 -19 -15 -99 37
-48 31 -91 56 -96 56 -6 0 -10 5 -10 10 0 6 -7 10 -15 10 -8 0 -15 5 -15 10 0
6 -7 10 -15 10 -8 0 -15 2 -15 5 0 2 23 36 51 75 l51 70 -27 36 c-15 19 -45
49 -68 65 -39 29 -132 63 -147 54 -4 -2 -6 -48 -6 -101 1 -53 -2 -98 -5 -100
-19 -12 -30 34 -33 138 -3 102 -5 117 -29 155 -37 58 -74 90 -126 108 -36 12
-100 15 -317 15 l-272 0 -4 53 c-1 28 -1 66 2 82 l5 30 510 1 c281 0 523 4
539 8 115 28 224 139 254 259 9 33 12 302 12 965 0 881 -1 921 -19 975 -34 99
-109 176 -216 224 -37 16 -90 17 -648 19 -334 0 -610 4 -613 7 -3 3 -25 81
-48 172 l-42 166 30 13 c51 21 97 67 122 120 34 73 28 167 -14 227 -38 56 -59
75 -105 94 -58 24 -116 26 -175 6z"/>
<path d="M2664 988 c-64 -17 -81 -67 -40 -115 l24 -28 884 -1 c485 0 898 4
915 8 59 16 74 92 26 124 -27 17 -71 18 -905 19 -483 0 -890 -3 -904 -7z"/>
<path d="M2976 679 c-92 -10 -118 -96 -41 -136 13 -7 224 -10 643 -9 l624 1
23 27 c28 33 25 62 -9 96 l-24 25 -584 1 c-320 0 -605 -2 -632 -5z"/>
<path d="M3316 373 c-1 -1 -13 -4 -28 -7 -43 -7 -67 -25 -74 -52 -9 -34 10
-72 42 -84 36 -14 546 -13 577 1 33 15 51 51 43 84 -12 49 -52 56 -318 58
-132 1 -241 1 -242 0z"/>
</g>
</svg>
